<?xml version="1.0" encoding="utf-8" standalone="no"?>
<!DOCTYPE svg PUBLIC "-//W3C//DTD SVG 1.1//EN"
  "http://www.w3.org/Graphics/SVG/1.1/DTD/svg11.dtd">
<!-- Created with matplotlib (https://matplotlib.org/) -->
<svg height="432pt" version="1.1" viewBox="0 0 576 432" width="576pt" xmlns="http://www.w3.org/2000/svg" xmlns:xlink="http://www.w3.org/1999/xlink">
 <metadata>
  <rdf:RDF xmlns:cc="http://creativecommons.org/ns#" xmlns:dc="http://purl.org/dc/elements/1.1/" xmlns:rdf="http://www.w3.org/1999/02/22-rdf-syntax-ns#">
   <cc:Work>
    <dc:type rdf:resource="http://purl.org/dc/dcmitype/StillImage"/>
    <dc:date>2021-05-09T21:56:57.874247</dc:date>
    <dc:format>image/svg+xml</dc:format>
    <dc:creator>
     <cc:Agent>
      <dc:title>Matplotlib v3.3.4, https://matplotlib.org/</dc:title>
     </cc:Agent>
    </dc:creator>
   </cc:Work>
  </rdf:RDF>
 </metadata>
 <defs>
  <style type="text/css">*{stroke-linecap:butt;stroke-linejoin:round;}</style>
 </defs>
 <g id="figure_1">
  <g id="patch_1">
   <path d="M 0 432 
L 576 432 
L 576 0 
L 0 0 
z
" style="fill:none;"/>
  </g>
  <g id="axes_1">
   <g id="patch_2">
    <path d="M 72 378 
L 518.4 378 
L 518.4 51.84 
L 72 51.84 
z
" style="fill:#ffffff;"/>
   </g>
   <g id="matplotlib.axis_1">
    <g id="xtick_1">
     <g id="line2d_1">
      <defs>
       <path d="M 0 0 
L 0 3.5 
" id="m60fcf1aa6e" style="stroke:#000000;stroke-width:0.8;"/>
      </defs>
      <g>
       <use style="stroke:#000000;stroke-width:0.8;" x="92.295691" xlink:href="#m60fcf1aa6e" y="378"/>
      </g>
     </g>
     <g id="text_1">
      <!-- 1141.000 -->
      <g transform="translate(68.437878 392.598437)scale(0.1 -0.1)">
       <defs>
        <path d="M 12.40625 8.296875 
L 28.515625 8.296875 
L 28.515625 63.921875 
L 10.984375 60.40625 
L 10.984375 69.390625 
L 28.421875 72.90625 
L 38.28125 72.90625 
L 38.28125 8.296875 
L 54.390625 8.296875 
L 54.390625 0 
L 12.40625 0 
z
" id="DejaVuSans-49"/>
        <path d="M 37.796875 64.3125 
L 12.890625 25.390625 
L 37.796875 25.390625 
z
M 35.203125 72.90625 
L 47.609375 72.90625 
L 47.609375 25.390625 
L 58.015625 25.390625 
L 58.015625 17.1875 
L 47.609375 17.1875 
L 47.609375 0 
L 37.796875 0 
L 37.796875 17.1875 
L 4.890625 17.1875 
L 4.890625 26.703125 
z
" id="DejaVuSans-52"/>
        <path d="M 10.6875 12.40625 
L 21 12.40625 
L 21 0 
L 10.6875 0 
z
" id="DejaVuSans-46"/>
        <path d="M 31.78125 66.40625 
Q 24.171875 66.40625 20.328125 58.90625 
Q 16.5 51.421875 16.5 36.375 
Q 16.5 21.390625 20.328125 13.890625 
Q 24.171875 6.390625 31.78125 6.390625 
Q 39.453125 6.390625 43.28125 13.890625 
Q 47.125 21.390625 47.125 36.375 
Q 47.125 51.421875 43.28125 58.90625 
Q 39.453125 66.40625 31.78125 66.40625 
z
M 31.78125 74.21875 
Q 44.046875 74.21875 50.515625 64.515625 
Q 56.984375 54.828125 56.984375 36.375 
Q 56.984375 17.96875 50.515625 8.265625 
Q 44.046875 -1.421875 31.78125 -1.421875 
Q 19.53125 -1.421875 13.0625 8.265625 
Q 6.59375 17.96875 6.59375 36.375 
Q 6.59375 54.828125 13.0625 64.515625 
Q 19.53125 74.21875 31.78125 74.21875 
z
" id="DejaVuSans-48"/>
       </defs>
       <use xlink:href="#DejaVuSans-49"/>
       <use x="63.623047" xlink:href="#DejaVuSans-49"/>
       <use x="127.246094" xlink:href="#DejaVuSans-52"/>
       <use x="190.869141" xlink:href="#DejaVuSans-49"/>
       <use x="254.492188" xlink:href="#DejaVuSans-46"/>
       <use x="286.279297" xlink:href="#DejaVuSans-48"/>
       <use x="349.902344" xlink:href="#DejaVuSans-48"/>
       <use x="413.525391" xlink:href="#DejaVuSans-48"/>
      </g>
     </g>
    </g>
    <g id="xtick_2">
     <g id="line2d_2">
      <g>
       <use style="stroke:#000000;stroke-width:0.8;" x="173.461567" xlink:href="#m60fcf1aa6e" y="378"/>
      </g>
     </g>
     <g id="text_2">
      <!-- 1141.500 -->
      <g transform="translate(149.603755 392.598437)scale(0.1 -0.1)">
       <defs>
        <path d="M 10.796875 72.90625 
L 49.515625 72.90625 
L 49.515625 64.59375 
L 19.828125 64.59375 
L 19.828125 46.734375 
Q 21.96875 47.46875 24.109375 47.828125 
Q 26.265625 48.1875 28.421875 48.1875 
Q 40.625 48.1875 47.75 41.5 
Q 54.890625 34.8125 54.890625 23.390625 
Q 54.890625 11.625 47.5625 5.09375 
Q 40.234375 -1.421875 26.90625 -1.421875 
Q 22.3125 -1.421875 17.546875 -0.640625 
Q 12.796875 0.140625 7.71875 1.703125 
L 7.71875 11.625 
Q 12.109375 9.234375 16.796875 8.0625 
Q 21.484375 6.890625 26.703125 6.890625 
Q 35.15625 6.890625 40.078125 11.328125 
Q 45.015625 15.765625 45.015625 23.390625 
Q 45.015625 31 40.078125 35.4375 
Q 35.15625 39.890625 26.703125 39.890625 
Q 22.75 39.890625 18.8125 39.015625 
Q 14.890625 38.140625 10.796875 36.28125 
z
" id="DejaVuSans-53"/>
       </defs>
       <use xlink:href="#DejaVuSans-49"/>
       <use x="63.623047" xlink:href="#DejaVuSans-49"/>
       <use x="127.246094" xlink:href="#DejaVuSans-52"/>
       <use x="190.869141" xlink:href="#DejaVuSans-49"/>
       <use x="254.492188" xlink:href="#DejaVuSans-46"/>
       <use x="286.279297" xlink:href="#DejaVuSans-53"/>
       <use x="349.902344" xlink:href="#DejaVuSans-48"/>
       <use x="413.525391" xlink:href="#DejaVuSans-48"/>
      </g>
     </g>
    </g>
    <g id="xtick_3">
     <g id="line2d_3">
      <g>
       <use style="stroke:#000000;stroke-width:0.8;" x="254.627443" xlink:href="#m60fcf1aa6e" y="378"/>
      </g>
     </g>
     <g id="text_3">
      <!-- 1142.000 -->
      <g transform="translate(230.769631 392.598437)scale(0.1 -0.1)">
       <defs>
        <path d="M 19.1875 8.296875 
L 53.609375 8.296875 
L 53.609375 0 
L 7.328125 0 
L 7.328125 8.296875 
Q 12.9375 14.109375 22.625 23.890625 
Q 32.328125 33.6875 34.8125 36.53125 
Q 39.546875 41.84375 41.421875 45.53125 
Q 43.3125 49.21875 43.3125 52.78125 
Q 43.3125 58.59375 39.234375 62.25 
Q 35.15625 65.921875 28.609375 65.921875 
Q 23.96875 65.921875 18.8125 64.3125 
Q 13.671875 62.703125 7.8125 59.421875 
L 7.8125 69.390625 
Q 13.765625 71.78125 18.9375 73 
Q 24.125 74.21875 28.421875 74.21875 
Q 39.75 74.21875 46.484375 68.546875 
Q 53.21875 62.890625 53.21875 53.421875 
Q 53.21875 48.921875 51.53125 44.890625 
Q 49.859375 40.875 45.40625 35.40625 
Q 44.1875 33.984375 37.640625 27.21875 
Q 31.109375 20.453125 19.1875 8.296875 
z
" id="DejaVuSans-50"/>
       </defs>
       <use xlink:href="#DejaVuSans-49"/>
       <use x="63.623047" xlink:href="#DejaVuSans-49"/>
       <use x="127.246094" xlink:href="#DejaVuSans-52"/>
       <use x="190.869141" xlink:href="#DejaVuSans-50"/>
       <use x="254.492188" xlink:href="#DejaVuSans-46"/>
       <use x="286.279297" xlink:href="#DejaVuSans-48"/>
       <use x="349.902344" xlink:href="#DejaVuSans-48"/>
       <use x="413.525391" xlink:href="#DejaVuSans-48"/>
      </g>
     </g>
    </g>
    <g id="xtick_4">
     <g id="line2d_4">
      <g>
       <use style="stroke:#000000;stroke-width:0.8;" x="335.79332" xlink:href="#m60fcf1aa6e" y="378"/>
      </g>
     </g>
     <g id="text_4">
      <!-- 1142.500 -->
      <g transform="translate(311.935507 392.598437)scale(0.1 -0.1)">
       <use xlink:href="#DejaVuSans-49"/>
       <use x="63.623047" xlink:href="#DejaVuSans-49"/>
       <use x="127.246094" xlink:href="#DejaVuSans-52"/>
       <use x="190.869141" xlink:href="#DejaVuSans-50"/>
       <use x="254.492188" xlink:href="#DejaVuSans-46"/>
       <use x="286.279297" xlink:href="#DejaVuSans-53"/>
       <use x="349.902344" xlink:href="#DejaVuSans-48"/>
       <use x="413.525391" xlink:href="#DejaVuSans-48"/>
      </g>
     </g>
    </g>
    <g id="xtick_5">
     <g id="line2d_5">
      <g>
       <use style="stroke:#000000;stroke-width:0.8;" x="416.959196" xlink:href="#m60fcf1aa6e" y="378"/>
      </g>
     </g>
     <g id="text_5">
      <!-- 1143.000 -->
      <g transform="translate(393.101384 392.598437)scale(0.1 -0.1)">
       <defs>
        <path d="M 40.578125 39.3125 
Q 47.65625 37.796875 51.625 33 
Q 55.609375 28.21875 55.609375 21.1875 
Q 55.609375 10.40625 48.1875 4.484375 
Q 40.765625 -1.421875 27.09375 -1.421875 
Q 22.515625 -1.421875 17.65625 -0.515625 
Q 12.796875 0.390625 7.625 2.203125 
L 7.625 11.71875 
Q 11.71875 9.328125 16.59375 8.109375 
Q 21.484375 6.890625 26.8125 6.890625 
Q 36.078125 6.890625 40.9375 10.546875 
Q 45.796875 14.203125 45.796875 21.1875 
Q 45.796875 27.640625 41.28125 31.265625 
Q 36.765625 34.90625 28.71875 34.90625 
L 20.21875 34.90625 
L 20.21875 43.015625 
L 29.109375 43.015625 
Q 36.375 43.015625 40.234375 45.921875 
Q 44.09375 48.828125 44.09375 54.296875 
Q 44.09375 59.90625 40.109375 62.90625 
Q 36.140625 65.921875 28.71875 65.921875 
Q 24.65625 65.921875 20.015625 65.03125 
Q 15.375 64.15625 9.8125 62.3125 
L 9.8125 71.09375 
Q 15.4375 72.65625 20.34375 73.4375 
Q 25.25 74.21875 29.59375 74.21875 
Q 40.828125 74.21875 47.359375 69.109375 
Q 53.90625 64.015625 53.90625 55.328125 
Q 53.90625 49.265625 50.4375 45.09375 
Q 46.96875 40.921875 40.578125 39.3125 
z
" id="DejaVuSans-51"/>
       </defs>
       <use xlink:href="#DejaVuSans-49"/>
       <use x="63.623047" xlink:href="#DejaVuSans-49"/>
       <use x="127.246094" xlink:href="#DejaVuSans-52"/>
       <use x="190.869141" xlink:href="#DejaVuSans-51"/>
       <use x="254.492188" xlink:href="#DejaVuSans-46"/>
       <use x="286.279297" xlink:href="#DejaVuSans-48"/>
       <use x="349.902344" xlink:href="#DejaVuSans-48"/>
       <use x="413.525391" xlink:href="#DejaVuSans-48"/>
      </g>
     </g>
    </g>
    <g id="xtick_6">
     <g id="line2d_6">
      <g>
       <use style="stroke:#000000;stroke-width:0.8;" x="498.125072" xlink:href="#m60fcf1aa6e" y="378"/>
      </g>
     </g>
     <g id="text_6">
      <!-- 1143.500 -->
      <g transform="translate(474.26726 392.598437)scale(0.1 -0.1)">
       <use xlink:href="#DejaVuSans-49"/>
       <use x="63.623047" xlink:href="#DejaVuSans-49"/>
       <use x="127.246094" xlink:href="#DejaVuSans-52"/>
       <use x="190.869141" xlink:href="#DejaVuSans-51"/>
       <use x="254.492188" xlink:href="#DejaVuSans-46"/>
       <use x="286.279297" xlink:href="#DejaVuSans-53"/>
       <use x="349.902344" xlink:href="#DejaVuSans-48"/>
       <use x="413.525391" xlink:href="#DejaVuSans-48"/>
      </g>
     </g>
    </g>
    <g id="text_7">
     <!-- m/z -->
     <g transform="translate(286.021094 406.276563)scale(0.1 -0.1)">
      <defs>
       <path d="M 52 44.1875 
Q 55.375 50.25 60.0625 53.125 
Q 64.75 56 71.09375 56 
Q 79.640625 56 84.28125 50.015625 
Q 88.921875 44.046875 88.921875 33.015625 
L 88.921875 0 
L 79.890625 0 
L 79.890625 32.71875 
Q 79.890625 40.578125 77.09375 44.375 
Q 74.3125 48.1875 68.609375 48.1875 
Q 61.625 48.1875 57.5625 43.546875 
Q 53.515625 38.921875 53.515625 30.90625 
L 53.515625 0 
L 44.484375 0 
L 44.484375 32.71875 
Q 44.484375 40.625 41.703125 44.40625 
Q 38.921875 48.1875 33.109375 48.1875 
Q 26.21875 48.1875 22.15625 43.53125 
Q 18.109375 38.875 18.109375 30.90625 
L 18.109375 0 
L 9.078125 0 
L 9.078125 54.6875 
L 18.109375 54.6875 
L 18.109375 46.1875 
Q 21.1875 51.21875 25.484375 53.609375 
Q 29.78125 56 35.6875 56 
Q 41.65625 56 45.828125 52.96875 
Q 50 49.953125 52 44.1875 
z
" id="DejaVuSans-109"/>
       <path d="M 25.390625 72.90625 
L 33.6875 72.90625 
L 8.296875 -9.28125 
L 0 -9.28125 
z
" id="DejaVuSans-47"/>
       <path d="M 5.515625 54.6875 
L 48.1875 54.6875 
L 48.1875 46.484375 
L 14.40625 7.171875 
L 48.1875 7.171875 
L 48.1875 0 
L 4.296875 0 
L 4.296875 8.203125 
L 38.09375 47.515625 
L 5.515625 47.515625 
z
" id="DejaVuSans-122"/>
      </defs>
      <use xlink:href="#DejaVuSans-109"/>
      <use x="97.412109" xlink:href="#DejaVuSans-47"/>
      <use x="131.103516" xlink:href="#DejaVuSans-122"/>
     </g>
    </g>
   </g>
   <g id="matplotlib.axis_2">
    <g id="ytick_1">
     <g id="line2d_7">
      <defs>
       <path d="M 0 0 
L -3.5 0 
" id="ma8b805ecbb" style="stroke:#000000;stroke-width:0.8;"/>
      </defs>
      <g>
       <use style="stroke:#000000;stroke-width:0.8;" x="72" xlink:href="#ma8b805ecbb" y="363.186465"/>
      </g>
     </g>
     <g id="text_8">
      <!-- 0.0e+00 -->
      <g transform="translate(21.839062 366.985684)scale(0.1 -0.1)">
       <defs>
        <path d="M 56.203125 29.59375 
L 56.203125 25.203125 
L 14.890625 25.203125 
Q 15.484375 15.921875 20.484375 11.0625 
Q 25.484375 6.203125 34.421875 6.203125 
Q 39.59375 6.203125 44.453125 7.46875 
Q 49.3125 8.734375 54.109375 11.28125 
L 54.109375 2.78125 
Q 49.265625 0.734375 44.1875 -0.34375 
Q 39.109375 -1.421875 33.890625 -1.421875 
Q 20.796875 -1.421875 13.15625 6.1875 
Q 5.515625 13.8125 5.515625 26.8125 
Q 5.515625 40.234375 12.765625 48.109375 
Q 20.015625 56 32.328125 56 
Q 43.359375 56 49.78125 48.890625 
Q 56.203125 41.796875 56.203125 29.59375 
z
M 47.21875 32.234375 
Q 47.125 39.59375 43.09375 43.984375 
Q 39.0625 48.390625 32.421875 48.390625 
Q 24.90625 48.390625 20.390625 44.140625 
Q 15.875 39.890625 15.1875 32.171875 
z
" id="DejaVuSans-101"/>
        <path d="M 46 62.703125 
L 46 35.5 
L 73.1875 35.5 
L 73.1875 27.203125 
L 46 27.203125 
L 46 0 
L 37.796875 0 
L 37.796875 27.203125 
L 10.59375 27.203125 
L 10.59375 35.5 
L 37.796875 35.5 
L 37.796875 62.703125 
z
" id="DejaVuSans-43"/>
       </defs>
       <use xlink:href="#DejaVuSans-48"/>
       <use x="63.623047" xlink:href="#DejaVuSans-46"/>
       <use x="95.410156" xlink:href="#DejaVuSans-48"/>
       <use x="159.033203" xlink:href="#DejaVuSans-101"/>
       <use x="220.556641" xlink:href="#DejaVuSans-43"/>
       <use x="304.345703" xlink:href="#DejaVuSans-48"/>
       <use x="367.96875" xlink:href="#DejaVuSans-48"/>
      </g>
     </g>
    </g>
    <g id="ytick_2">
     <g id="line2d_8">
      <g>
       <use style="stroke:#000000;stroke-width:0.8;" x="72" xlink:href="#ma8b805ecbb" y="325.336264"/>
      </g>
     </g>
     <g id="text_9">
      <!-- 5.0e+08 -->
      <g transform="translate(21.839062 329.135483)scale(0.1 -0.1)">
       <defs>
        <path d="M 31.78125 34.625 
Q 24.75 34.625 20.71875 30.859375 
Q 16.703125 27.09375 16.703125 20.515625 
Q 16.703125 13.921875 20.71875 10.15625 
Q 24.75 6.390625 31.78125 6.390625 
Q 38.8125 6.390625 42.859375 10.171875 
Q 46.921875 13.96875 46.921875 20.515625 
Q 46.921875 27.09375 42.890625 30.859375 
Q 38.875 34.625 31.78125 34.625 
z
M 21.921875 38.8125 
Q 15.578125 40.375 12.03125 44.71875 
Q 8.5 49.078125 8.5 55.328125 
Q 8.5 64.0625 14.71875 69.140625 
Q 20.953125 74.21875 31.78125 74.21875 
Q 42.671875 74.21875 48.875 69.140625 
Q 55.078125 64.0625 55.078125 55.328125 
Q 55.078125 49.078125 51.53125 44.71875 
Q 48 40.375 41.703125 38.8125 
Q 48.828125 37.15625 52.796875 32.3125 
Q 56.78125 27.484375 56.78125 20.515625 
Q 56.78125 9.90625 50.3125 4.234375 
Q 43.84375 -1.421875 31.78125 -1.421875 
Q 19.734375 -1.421875 13.25 4.234375 
Q 6.78125 9.90625 6.78125 20.515625 
Q 6.78125 27.484375 10.78125 32.3125 
Q 14.796875 37.15625 21.921875 38.8125 
z
M 18.3125 54.390625 
Q 18.3125 48.734375 21.84375 45.5625 
Q 25.390625 42.390625 31.78125 42.390625 
Q 38.140625 42.390625 41.71875 45.5625 
Q 45.3125 48.734375 45.3125 54.390625 
Q 45.3125 60.0625 41.71875 63.234375 
Q 38.140625 66.40625 31.78125 66.40625 
Q 25.390625 66.40625 21.84375 63.234375 
Q 18.3125 60.0625 18.3125 54.390625 
z
" id="DejaVuSans-56"/>
       </defs>
       <use xlink:href="#DejaVuSans-53"/>
       <use x="63.623047" xlink:href="#DejaVuSans-46"/>
       <use x="95.410156" xlink:href="#DejaVuSans-48"/>
       <use x="159.033203" xlink:href="#DejaVuSans-101"/>
       <use x="220.556641" xlink:href="#DejaVuSans-43"/>
       <use x="304.345703" xlink:href="#DejaVuSans-48"/>
       <use x="367.96875" xlink:href="#DejaVuSans-56"/>
      </g>
     </g>
    </g>
    <g id="ytick_3">
     <g id="line2d_9">
      <g>
       <use style="stroke:#000000;stroke-width:0.8;" x="72" xlink:href="#ma8b805ecbb" y="287.486063"/>
      </g>
     </g>
     <g id="text_10">
      <!-- 1.0e+09 -->
      <g transform="translate(21.839062 291.285282)scale(0.1 -0.1)">
       <defs>
        <path d="M 10.984375 1.515625 
L 10.984375 10.5 
Q 14.703125 8.734375 18.5 7.8125 
Q 22.3125 6.890625 25.984375 6.890625 
Q 35.75 6.890625 40.890625 13.453125 
Q 46.046875 20.015625 46.78125 33.40625 
Q 43.953125 29.203125 39.59375 26.953125 
Q 35.25 24.703125 29.984375 24.703125 
Q 19.046875 24.703125 12.671875 31.3125 
Q 6.296875 37.9375 6.296875 49.421875 
Q 6.296875 60.640625 12.9375 67.421875 
Q 19.578125 74.21875 30.609375 74.21875 
Q 43.265625 74.21875 49.921875 64.515625 
Q 56.59375 54.828125 56.59375 36.375 
Q 56.59375 19.140625 48.40625 8.859375 
Q 40.234375 -1.421875 26.421875 -1.421875 
Q 22.703125 -1.421875 18.890625 -0.6875 
Q 15.09375 0.046875 10.984375 1.515625 
z
M 30.609375 32.421875 
Q 37.25 32.421875 41.125 36.953125 
Q 45.015625 41.5 45.015625 49.421875 
Q 45.015625 57.28125 41.125 61.84375 
Q 37.25 66.40625 30.609375 66.40625 
Q 23.96875 66.40625 20.09375 61.84375 
Q 16.21875 57.28125 16.21875 49.421875 
Q 16.21875 41.5 20.09375 36.953125 
Q 23.96875 32.421875 30.609375 32.421875 
z
" id="DejaVuSans-57"/>
       </defs>
       <use xlink:href="#DejaVuSans-49"/>
       <use x="63.623047" xlink:href="#DejaVuSans-46"/>
       <use x="95.410156" xlink:href="#DejaVuSans-48"/>
       <use x="159.033203" xlink:href="#DejaVuSans-101"/>
       <use x="220.556641" xlink:href="#DejaVuSans-43"/>
       <use x="304.345703" xlink:href="#DejaVuSans-48"/>
       <use x="367.96875" xlink:href="#DejaVuSans-57"/>
      </g>
     </g>
    </g>
    <g id="ytick_4">
     <g id="line2d_10">
      <g>
       <use style="stroke:#000000;stroke-width:0.8;" x="72" xlink:href="#ma8b805ecbb" y="249.635862"/>
      </g>
     </g>
     <g id="text_11">
      <!-- 1.5e+09 -->
      <g transform="translate(21.839062 253.43508)scale(0.1 -0.1)">
       <use xlink:href="#DejaVuSans-49"/>
       <use x="63.623047" xlink:href="#DejaVuSans-46"/>
       <use x="95.410156" xlink:href="#DejaVuSans-53"/>
       <use x="159.033203" xlink:href="#DejaVuSans-101"/>
       <use x="220.556641" xlink:href="#DejaVuSans-43"/>
       <use x="304.345703" xlink:href="#DejaVuSans-48"/>
       <use x="367.96875" xlink:href="#DejaVuSans-57"/>
      </g>
     </g>
    </g>
    <g id="ytick_5">
     <g id="line2d_11">
      <g>
       <use style="stroke:#000000;stroke-width:0.8;" x="72" xlink:href="#ma8b805ecbb" y="211.78566"/>
      </g>
     </g>
     <g id="text_12">
      <!-- 2.0e+09 -->
      <g transform="translate(21.839062 215.584879)scale(0.1 -0.1)">
       <use xlink:href="#DejaVuSans-50"/>
       <use x="63.623047" xlink:href="#DejaVuSans-46"/>
       <use x="95.410156" xlink:href="#DejaVuSans-48"/>
       <use x="159.033203" xlink:href="#DejaVuSans-101"/>
       <use x="220.556641" xlink:href="#DejaVuSans-43"/>
       <use x="304.345703" xlink:href="#DejaVuSans-48"/>
       <use x="367.96875" xlink:href="#DejaVuSans-57"/>
      </g>
     </g>
    </g>
    <g id="ytick_6">
     <g id="line2d_12">
      <g>
       <use style="stroke:#000000;stroke-width:0.8;" x="72" xlink:href="#ma8b805ecbb" y="173.935459"/>
      </g>
     </g>
     <g id="text_13">
      <!-- 2.5e+09 -->
      <g transform="translate(21.839062 177.734678)scale(0.1 -0.1)">
       <use xlink:href="#DejaVuSans-50"/>
       <use x="63.623047" xlink:href="#DejaVuSans-46"/>
       <use x="95.410156" xlink:href="#DejaVuSans-53"/>
       <use x="159.033203" xlink:href="#DejaVuSans-101"/>
       <use x="220.556641" xlink:href="#DejaVuSans-43"/>
       <use x="304.345703" xlink:href="#DejaVuSans-48"/>
       <use x="367.96875" xlink:href="#DejaVuSans-57"/>
      </g>
     </g>
    </g>
    <g id="ytick_7">
     <g id="line2d_13">
      <g>
       <use style="stroke:#000000;stroke-width:0.8;" x="72" xlink:href="#ma8b805ecbb" y="136.085258"/>
      </g>
     </g>
     <g id="text_14">
      <!-- 3.0e+09 -->
      <g transform="translate(21.839062 139.884476)scale(0.1 -0.1)">
       <use xlink:href="#DejaVuSans-51"/>
       <use x="63.623047" xlink:href="#DejaVuSans-46"/>
       <use x="95.410156" xlink:href="#DejaVuSans-48"/>
       <use x="159.033203" xlink:href="#DejaVuSans-101"/>
       <use x="220.556641" xlink:href="#DejaVuSans-43"/>
       <use x="304.345703" xlink:href="#DejaVuSans-48"/>
       <use x="367.96875" xlink:href="#DejaVuSans-57"/>
      </g>
     </g>
    </g>
    <g id="ytick_8">
     <g id="line2d_14">
      <g>
       <use style="stroke:#000000;stroke-width:0.8;" x="72" xlink:href="#ma8b805ecbb" y="98.235056"/>
      </g>
     </g>
     <g id="text_15">
      <!-- 3.5e+09 -->
      <g transform="translate(21.839062 102.034275)scale(0.1 -0.1)">
       <use xlink:href="#DejaVuSans-51"/>
       <use x="63.623047" xlink:href="#DejaVuSans-46"/>
       <use x="95.410156" xlink:href="#DejaVuSans-53"/>
       <use x="159.033203" xlink:href="#DejaVuSans-101"/>
       <use x="220.556641" xlink:href="#DejaVuSans-43"/>
       <use x="304.345703" xlink:href="#DejaVuSans-48"/>
       <use x="367.96875" xlink:href="#DejaVuSans-57"/>
      </g>
     </g>
    </g>
    <g id="ytick_9">
     <g id="line2d_15">
      <g>
       <use style="stroke:#000000;stroke-width:0.8;" x="72" xlink:href="#ma8b805ecbb" y="60.384855"/>
      </g>
     </g>
     <g id="text_16">
      <!-- 4.0e+09 -->
      <g transform="translate(21.839062 64.184074)scale(0.1 -0.1)">
       <use xlink:href="#DejaVuSans-52"/>
       <use x="63.623047" xlink:href="#DejaVuSans-46"/>
       <use x="95.410156" xlink:href="#DejaVuSans-48"/>
       <use x="159.033203" xlink:href="#DejaVuSans-101"/>
       <use x="220.556641" xlink:href="#DejaVuSans-43"/>
       <use x="304.345703" xlink:href="#DejaVuSans-48"/>
       <use x="367.96875" xlink:href="#DejaVuSans-57"/>
      </g>
     </g>
    </g>
    <g id="text_17">
     <!-- Abundance, orb. units -->
     <g transform="translate(15.759375 270.021562)rotate(-90)scale(0.1 -0.1)">
      <defs>
       <path d="M 34.1875 63.1875 
L 20.796875 26.90625 
L 47.609375 26.90625 
z
M 28.609375 72.90625 
L 39.796875 72.90625 
L 67.578125 0 
L 57.328125 0 
L 50.6875 18.703125 
L 17.828125 18.703125 
L 11.1875 0 
L 0.78125 0 
z
" id="DejaVuSans-65"/>
       <path d="M 48.6875 27.296875 
Q 48.6875 37.203125 44.609375 42.84375 
Q 40.53125 48.484375 33.40625 48.484375 
Q 26.265625 48.484375 22.1875 42.84375 
Q 18.109375 37.203125 18.109375 27.296875 
Q 18.109375 17.390625 22.1875 11.75 
Q 26.265625 6.109375 33.40625 6.109375 
Q 40.53125 6.109375 44.609375 11.75 
Q 48.6875 17.390625 48.6875 27.296875 
z
M 18.109375 46.390625 
Q 20.953125 51.265625 25.265625 53.625 
Q 29.59375 56 35.59375 56 
Q 45.5625 56 51.78125 48.09375 
Q 58.015625 40.1875 58.015625 27.296875 
Q 58.015625 14.40625 51.78125 6.484375 
Q 45.5625 -1.421875 35.59375 -1.421875 
Q 29.59375 -1.421875 25.265625 0.953125 
Q 20.953125 3.328125 18.109375 8.203125 
L 18.109375 0 
L 9.078125 0 
L 9.078125 75.984375 
L 18.109375 75.984375 
z
" id="DejaVuSans-98"/>
       <path d="M 8.5 21.578125 
L 8.5 54.6875 
L 17.484375 54.6875 
L 17.484375 21.921875 
Q 17.484375 14.15625 20.5 10.265625 
Q 23.53125 6.390625 29.59375 6.390625 
Q 36.859375 6.390625 41.078125 11.03125 
Q 45.3125 15.671875 45.3125 23.6875 
L 45.3125 54.6875 
L 54.296875 54.6875 
L 54.296875 0 
L 45.3125 0 
L 45.3125 8.40625 
Q 42.046875 3.421875 37.71875 1 
Q 33.40625 -1.421875 27.6875 -1.421875 
Q 18.265625 -1.421875 13.375 4.4375 
Q 8.5 10.296875 8.5 21.578125 
z
M 31.109375 56 
z
" id="DejaVuSans-117"/>
       <path d="M 54.890625 33.015625 
L 54.890625 0 
L 45.90625 0 
L 45.90625 32.71875 
Q 45.90625 40.484375 42.875 44.328125 
Q 39.84375 48.1875 33.796875 48.1875 
Q 26.515625 48.1875 22.3125 43.546875 
Q 18.109375 38.921875 18.109375 30.90625 
L 18.109375 0 
L 9.078125 0 
L 9.078125 54.6875 
L 18.109375 54.6875 
L 18.109375 46.1875 
Q 21.34375 51.125 25.703125 53.5625 
Q 30.078125 56 35.796875 56 
Q 45.21875 56 50.046875 50.171875 
Q 54.890625 44.34375 54.890625 33.015625 
z
" id="DejaVuSans-110"/>
       <path d="M 45.40625 46.390625 
L 45.40625 75.984375 
L 54.390625 75.984375 
L 54.390625 0 
L 45.40625 0 
L 45.40625 8.203125 
Q 42.578125 3.328125 38.25 0.953125 
Q 33.9375 -1.421875 27.875 -1.421875 
Q 17.96875 -1.421875 11.734375 6.484375 
Q 5.515625 14.40625 5.515625 27.296875 
Q 5.515625 40.1875 11.734375 48.09375 
Q 17.96875 56 27.875 56 
Q 33.9375 56 38.25 53.625 
Q 42.578125 51.265625 45.40625 46.390625 
z
M 14.796875 27.296875 
Q 14.796875 17.390625 18.875 11.75 
Q 22.953125 6.109375 30.078125 6.109375 
Q 37.203125 6.109375 41.296875 11.75 
Q 45.40625 17.390625 45.40625 27.296875 
Q 45.40625 37.203125 41.296875 42.84375 
Q 37.203125 48.484375 30.078125 48.484375 
Q 22.953125 48.484375 18.875 42.84375 
Q 14.796875 37.203125 14.796875 27.296875 
z
" id="DejaVuSans-100"/>
       <path d="M 34.28125 27.484375 
Q 23.390625 27.484375 19.1875 25 
Q 14.984375 22.515625 14.984375 16.5 
Q 14.984375 11.71875 18.140625 8.90625 
Q 21.296875 6.109375 26.703125 6.109375 
Q 34.1875 6.109375 38.703125 11.40625 
Q 43.21875 16.703125 43.21875 25.484375 
L 43.21875 27.484375 
z
M 52.203125 31.203125 
L 52.203125 0 
L 43.21875 0 
L 43.21875 8.296875 
Q 40.140625 3.328125 35.546875 0.953125 
Q 30.953125 -1.421875 24.3125 -1.421875 
Q 15.921875 -1.421875 10.953125 3.296875 
Q 6 8.015625 6 15.921875 
Q 6 25.140625 12.171875 29.828125 
Q 18.359375 34.515625 30.609375 34.515625 
L 43.21875 34.515625 
L 43.21875 35.40625 
Q 43.21875 41.609375 39.140625 45 
Q 35.0625 48.390625 27.6875 48.390625 
Q 23 48.390625 18.546875 47.265625 
Q 14.109375 46.140625 10.015625 43.890625 
L 10.015625 52.203125 
Q 14.9375 54.109375 19.578125 55.046875 
Q 24.21875 56 28.609375 56 
Q 40.484375 56 46.34375 49.84375 
Q 52.203125 43.703125 52.203125 31.203125 
z
" id="DejaVuSans-97"/>
       <path d="M 48.78125 52.59375 
L 48.78125 44.1875 
Q 44.96875 46.296875 41.140625 47.34375 
Q 37.3125 48.390625 33.40625 48.390625 
Q 24.65625 48.390625 19.8125 42.84375 
Q 14.984375 37.3125 14.984375 27.296875 
Q 14.984375 17.28125 19.8125 11.734375 
Q 24.65625 6.203125 33.40625 6.203125 
Q 37.3125 6.203125 41.140625 7.25 
Q 44.96875 8.296875 48.78125 10.40625 
L 48.78125 2.09375 
Q 45.015625 0.34375 40.984375 -0.53125 
Q 36.96875 -1.421875 32.421875 -1.421875 
Q 20.0625 -1.421875 12.78125 6.34375 
Q 5.515625 14.109375 5.515625 27.296875 
Q 5.515625 40.671875 12.859375 48.328125 
Q 20.21875 56 33.015625 56 
Q 37.15625 56 41.109375 55.140625 
Q 45.0625 54.296875 48.78125 52.59375 
z
" id="DejaVuSans-99"/>
       <path d="M 11.71875 12.40625 
L 22.015625 12.40625 
L 22.015625 4 
L 14.015625 -11.625 
L 7.71875 -11.625 
L 11.71875 4 
z
" id="DejaVuSans-44"/>
       <path id="DejaVuSans-32"/>
       <path d="M 30.609375 48.390625 
Q 23.390625 48.390625 19.1875 42.75 
Q 14.984375 37.109375 14.984375 27.296875 
Q 14.984375 17.484375 19.15625 11.84375 
Q 23.34375 6.203125 30.609375 6.203125 
Q 37.796875 6.203125 41.984375 11.859375 
Q 46.1875 17.53125 46.1875 27.296875 
Q 46.1875 37.015625 41.984375 42.703125 
Q 37.796875 48.390625 30.609375 48.390625 
z
M 30.609375 56 
Q 42.328125 56 49.015625 48.375 
Q 55.71875 40.765625 55.71875 27.296875 
Q 55.71875 13.875 49.015625 6.21875 
Q 42.328125 -1.421875 30.609375 -1.421875 
Q 18.84375 -1.421875 12.171875 6.21875 
Q 5.515625 13.875 5.515625 27.296875 
Q 5.515625 40.765625 12.171875 48.375 
Q 18.84375 56 30.609375 56 
z
" id="DejaVuSans-111"/>
       <path d="M 41.109375 46.296875 
Q 39.59375 47.171875 37.8125 47.578125 
Q 36.03125 48 33.890625 48 
Q 26.265625 48 22.1875 43.046875 
Q 18.109375 38.09375 18.109375 28.8125 
L 18.109375 0 
L 9.078125 0 
L 9.078125 54.6875 
L 18.109375 54.6875 
L 18.109375 46.1875 
Q 20.953125 51.171875 25.484375 53.578125 
Q 30.03125 56 36.53125 56 
Q 37.453125 56 38.578125 55.875 
Q 39.703125 55.765625 41.0625 55.515625 
z
" id="DejaVuSans-114"/>
       <path d="M 9.421875 54.6875 
L 18.40625 54.6875 
L 18.40625 0 
L 9.421875 0 
z
M 9.421875 75.984375 
L 18.40625 75.984375 
L 18.40625 64.59375 
L 9.421875 64.59375 
z
" id="DejaVuSans-105"/>
       <path d="M 18.3125 70.21875 
L 18.3125 54.6875 
L 36.8125 54.6875 
L 36.8125 47.703125 
L 18.3125 47.703125 
L 18.3125 18.015625 
Q 18.3125 11.328125 20.140625 9.421875 
Q 21.96875 7.515625 27.59375 7.515625 
L 36.8125 7.515625 
L 36.8125 0 
L 27.59375 0 
Q 17.1875 0 13.234375 3.875 
Q 9.28125 7.765625 9.28125 18.015625 
L 9.28125 47.703125 
L 2.6875 47.703125 
L 2.6875 54.6875 
L 9.28125 54.6875 
L 9.28125 70.21875 
z
" id="DejaVuSans-116"/>
       <path d="M 44.28125 53.078125 
L 44.28125 44.578125 
Q 40.484375 46.53125 36.375 47.5 
Q 32.28125 48.484375 27.875 48.484375 
Q 21.1875 48.484375 17.84375 46.4375 
Q 14.5 44.390625 14.5 40.28125 
Q 14.5 37.15625 16.890625 35.375 
Q 19.28125 33.59375 26.515625 31.984375 
L 29.59375 31.296875 
Q 39.15625 29.25 43.1875 25.515625 
Q 47.21875 21.78125 47.21875 15.09375 
Q 47.21875 7.46875 41.1875 3.015625 
Q 35.15625 -1.421875 24.609375 -1.421875 
Q 20.21875 -1.421875 15.453125 -0.5625 
Q 10.6875 0.296875 5.421875 2 
L 5.421875 11.28125 
Q 10.40625 8.6875 15.234375 7.390625 
Q 20.0625 6.109375 24.8125 6.109375 
Q 31.15625 6.109375 34.5625 8.28125 
Q 37.984375 10.453125 37.984375 14.40625 
Q 37.984375 18.0625 35.515625 20.015625 
Q 33.0625 21.96875 24.703125 23.78125 
L 21.578125 24.515625 
Q 13.234375 26.265625 9.515625 29.90625 
Q 5.8125 33.546875 5.8125 39.890625 
Q 5.8125 47.609375 11.28125 51.796875 
Q 16.75 56 26.8125 56 
Q 31.78125 56 36.171875 55.265625 
Q 40.578125 54.546875 44.28125 53.078125 
z
" id="DejaVuSans-115"/>
      </defs>
      <use xlink:href="#DejaVuSans-65"/>
      <use x="68.408203" xlink:href="#DejaVuSans-98"/>
      <use x="131.884766" xlink:href="#DejaVuSans-117"/>
      <use x="195.263672" xlink:href="#DejaVuSans-110"/>
      <use x="258.642578" xlink:href="#DejaVuSans-100"/>
      <use x="322.119141" xlink:href="#DejaVuSans-97"/>
      <use x="383.398438" xlink:href="#DejaVuSans-110"/>
      <use x="446.777344" xlink:href="#DejaVuSans-99"/>
      <use x="501.757812" xlink:href="#DejaVuSans-101"/>
      <use x="563.28125" xlink:href="#DejaVuSans-44"/>
      <use x="595.068359" xlink:href="#DejaVuSans-32"/>
      <use x="626.855469" xlink:href="#DejaVuSans-111"/>
      <use x="688.037109" xlink:href="#DejaVuSans-114"/>
      <use x="729.150391" xlink:href="#DejaVuSans-98"/>
      <use x="792.626953" xlink:href="#DejaVuSans-46"/>
      <use x="824.414062" xlink:href="#DejaVuSans-32"/>
      <use x="856.201172" xlink:href="#DejaVuSans-117"/>
      <use x="919.580078" xlink:href="#DejaVuSans-110"/>
      <use x="982.958984" xlink:href="#DejaVuSans-105"/>
      <use x="1010.742188" xlink:href="#DejaVuSans-116"/>
      <use x="1049.951172" xlink:href="#DejaVuSans-115"/>
     </g>
    </g>
   </g>
   <g id="line2d_16">
    <path clip-path="url(#pd7c92ee51e)" d="M 498.109091 362.624603 
L 496.965679 362.985764 
L 496.393977 363.071757 
L 495.822278 362.669624 
L 495.250581 362.576236 
L 492.392137 363.046186 
L 491.248778 362.929602 
L 490.677103 362.912063 
L 489.533759 362.639089 
L 488.962092 362.72228 
L 488.390427 362.940807 
L 487.818764 362.737887 
L 487.247105 362.813546 
L 486.675448 363.020427 
L 486.103793 362.806403 
L 485.532141 362.77942 
L 484.960492 362.950468 
L 484.388846 362.805894 
L 483.245561 363.136861 
L 482.102286 362.587258 
L 480.959022 362.503976 
L 480.387394 362.881281 
L 479.815769 362.87288 
L 479.244146 362.475345 
L 478.672526 362.332151 
L 477.529293 357.452768 
L 476.957681 358.943105 
L 476.386072 362.083616 
L 475.814465 362.949542 
L 475.242861 362.913214 
L 474.671259 361.75012 
L 474.09966 359.714761 
L 473.528064 358.872393 
L 472.384879 362.120033 
L 471.81329 363.16056 
L 471.241705 362.336301 
L 470.670122 362.364275 
L 470.098541 362.751224 
L 467.812245 362.821626 
L 467.240678 362.969064 
L 466.097551 362.650831 
L 464.954435 363.002186 
L 463.81133 363.038045 
L 463.239781 362.239586 
L 462.668235 360.701789 
L 462.096691 360.698758 
L 461.52515 362.144199 
L 460.953612 362.814579 
L 459.239013 363.010484 
L 458.09596 362.815038 
L 457.524438 363.013281 
L 456.952918 362.743539 
L 456.381401 362.751087 
L 455.809887 362.969647 
L 455.238375 363.042731 
L 454.095359 362.785264 
L 453.523855 362.80163 
L 452.952354 362.984721 
L 452.380855 363.043398 
L 450.666375 362.603383 
L 449.523401 362.667869 
L 448.380438 362.9352 
L 447.237486 362.860952 
L 446.666014 362.586 
L 446.094544 362.649603 
L 445.523077 362.984156 
L 444.951613 362.791985 
L 444.380151 362.771522 
L 443.237236 363.053361 
L 442.665782 363.110324 
L 441.522882 362.901524 
L 440.951436 362.925179 
L 440.379993 363.10686 
L 439.808553 363.121889 
L 439.237115 362.932985 
L 438.665679 363.128543 
L 438.094247 361.28661 
L 436.951389 348.040023 
L 436.379964 351.127655 
L 435.808542 359.081738 
L 435.237123 362.35792 
L 434.665706 361.60322 
L 434.094292 361.409753 
L 433.52288 359.802009 
L 432.951471 358.721211 
L 431.808662 361.621477 
L 431.237261 361.95802 
L 430.665862 362.659561 
L 429.523073 362.838835 
L 428.951683 362.780291 
L 428.380295 362.271139 
L 427.237528 362.989104 
L 426.666148 362.718881 
L 425.523396 362.960675 
L 424.952024 362.896017 
L 424.380655 363.063724 
L 423.237924 362.858348 
L 422.666562 363.069504 
L 421.523848 363.044818 
L 420.952494 362.89313 
L 420.381143 362.882602 
L 419.809795 363.066459 
L 419.238449 363.025163 
L 418.667107 362.843131 
L 415.810431 363.004155 
L 415.239104 363.095734 
L 414.096458 363.035948 
L 412.382508 363.048821 
L 411.811197 363.016984 
L 411.239889 362.831314 
L 409.525979 363.023365 
L 408.95468 363.114744 
L 408.383385 362.632555 
L 407.812092 362.403357 
L 407.240802 362.956427 
L 406.669515 362.496338 
L 406.09823 362.803008 
L 405.526947 362.743646 
L 404.955668 362.482988 
L 404.384391 362.82347 
L 403.813117 362.982519 
L 403.241845 362.622536 
L 402.670576 362.649142 
L 402.099309 362.986193 
L 400.956785 362.888272 
L 400.385526 362.958035 
L 399.243017 362.536362 
L 398.100519 362.614921 
L 397.529273 361.119151 
L 396.958031 349.876599 
L 396.386791 331.274118 
L 395.815553 330.461377 
L 395.244318 349.552672 
L 394.673086 361.77071 
L 394.101857 362.339471 
L 393.53063 362.578503 
L 392.959406 361.547454 
L 392.388184 360.238951 
L 391.816965 361.027715 
L 391.245749 362.11478 
L 390.674535 362.345025 
L 389.532116 362.535345 
L 388.96091 362.659371 
L 386.104921 362.525565 
L 384.962544 362.92755 
L 384.391359 362.921319 
L 383.820178 363.058573 
L 383.248998 362.863257 
L 381.535476 363.045281 
L 380.393141 362.14754 
L 379.821977 362.275996 
L 378.679658 363.079979 
L 378.108503 363.046918 
L 376.966199 362.569849 
L 375.823907 362.75475 
L 375.252764 362.746883 
L 374.681625 362.860841 
L 372.968221 362.898244 
L 372.397092 363.079756 
L 371.254841 362.576677 
L 370.112601 360.431843 
L 369.541485 361.068027 
L 368.970372 362.647199 
L 367.828153 362.814831 
L 367.257047 363.157196 
L 366.685945 362.799073 
L 366.114844 362.223681 
L 365.543747 360.861868 
L 364.40156 357.43155 
L 363.83047 358.786653 
L 363.259383 361.791805 
L 362.688298 362.830175 
L 362.117217 362.565187 
L 361.546138 362.557513 
L 360.975061 362.751322 
L 360.403987 362.632307 
L 359.832916 362.388244 
L 358.690782 362.381324 
L 358.119718 362.482481 
L 357.548658 362.361664 
L 356.9776 361.393196 
L 356.406544 342.454609 
L 355.835492 298.431829 
L 355.264441 283.727241 
L 354.122349 356.094421 
L 353.551307 362.244678 
L 352.980267 362.291839 
L 352.40923 361.975661 
L 351.838196 361.511257 
L 351.267165 361.697355 
L 350.125109 362.972547 
L 348.983064 362.678378 
L 348.412046 362.878967 
L 347.270017 363.047841 
L 346.127998 362.815629 
L 345.556993 362.959601 
L 344.41499 362.598227 
L 343.843993 362.802539 
L 341.56003 363.092286 
L 340.418064 362.913794 
L 339.847085 362.984749 
L 338.705135 362.752737 
L 338.134164 363.172826 
L 337.563196 362.862029 
L 335.279349 362.906587 
L 334.137441 363.033878 
L 332.995544 362.908175 
L 331.853657 362.966402 
L 331.282718 362.839281 
L 329.569916 362.923969 
L 328.998987 362.714165 
L 327.857137 362.603918 
L 326.715298 362.812015 
L 326.144383 363.043159 
L 325.57347 362.825338 
L 325.002559 362.777792 
L 324.431651 363.015744 
L 323.860746 363.012048 
L 323.289844 362.886721 
L 322.148047 362.84172 
L 321.577152 362.744098 
L 320.435371 362.959354 
L 319.864485 362.773444 
L 319.293601 362.713917 
L 318.722719 362.866618 
L 318.15184 363.140077 
L 317.580964 362.849025 
L 317.010091 362.42647 
L 316.43922 360.782054 
L 315.868352 340.830185 
L 314.726623 203.747317 
L 314.155763 254.525338 
L 313.584906 335.977191 
L 313.014051 361.317195 
L 312.443198 362.684651 
L 311.872348 362.687918 
L 310.730657 361.61662 
L 310.159815 361.959745 
L 309.588976 362.448251 
L 309.018139 362.751577 
L 308.447305 362.504877 
L 307.876474 362.467165 
L 306.73482 363.095488 
L 306.163996 362.90303 
L 305.593175 362.844258 
L 304.451542 363.01444 
L 302.739111 362.62137 
L 302.168306 362.584781 
L 301.597504 362.67368 
L 301.026704 362.973896 
L 299.885113 362.729719 
L 299.314321 362.938129 
L 298.743532 362.885917 
L 298.172746 362.453444 
L 297.601962 362.42586 
L 297.031181 362.846202 
L 295.889626 362.559564 
L 294.177314 363.065277 
L 293.035786 362.919366 
L 292.465026 363.029745 
L 291.894268 363.004208 
L 291.323514 362.792152 
L 290.752761 362.804818 
L 290.182012 362.999734 
L 289.611265 362.777061 
L 289.040521 362.345646 
L 288.469779 362.187652 
L 287.89904 362.195725 
L 286.186839 362.912498 
L 285.045384 362.61519 
L 284.474661 362.827614 
L 283.90394 362.88437 
L 283.333222 362.759266 
L 282.191794 363.010387 
L 281.050377 362.590676 
L 280.479672 362.5808 
L 279.90897 362.879991 
L 279.338271 363.027361 
L 278.196879 363.070626 
L 277.055499 362.504212 
L 276.484813 362.476121 
L 275.914129 361.869494 
L 275.343448 347.480021 
L 274.772769 253.994264 
L 274.202094 115.6 
L 273.63142 143.324291 
L 273.06075 291.814141 
L 272.490082 358.636585 
L 271.919417 362.718319 
L 270.778094 362.421305 
L 270.207437 361.343333 
L 269.636782 361.666342 
L 269.06613 362.466124 
L 268.495481 362.72298 
L 267.924834 362.716542 
L 267.35419 363.01735 
L 266.783548 362.94747 
L 266.212909 363.125984 
L 265.642273 362.863712 
L 263.359754 362.987895 
L 262.789131 363.072579 
L 261.647893 362.802842 
L 261.077277 362.610589 
L 259.936055 363.041864 
L 258.794843 362.476804 
L 257.083045 363.124958 
L 255.37127 362.751133 
L 254.800684 362.917816 
L 253.65952 362.59736 
L 253.088941 362.467383 
L 251.947793 362.791385 
L 250.806654 362.22615 
L 249.665527 362.837418 
L 249.094967 362.960309 
L 248.52441 362.718786 
L 247.383303 362.984172 
L 245.671663 362.563192 
L 245.101121 362.664189 
L 244.530583 362.932274 
L 243.960046 362.833033 
L 242.818982 362.89246 
L 242.248454 362.659818 
L 241.677928 362.935552 
L 241.107405 362.926396 
L 240.536885 362.659058 
L 238.25483 362.699364 
L 237.684322 362.571491 
L 237.113818 362.686836 
L 236.543316 362.579137 
L 235.972817 362.777 
L 235.40232 362.139861 
L 234.831826 355.118069 
L 234.261335 286.807788 
L 233.690846 120.289067 
L 233.12036 66.665455 
L 232.549876 220.474036 
L 231.979395 342.927075 
L 231.408917 362.302594 
L 230.838441 362.023997 
L 230.267969 362.159158 
L 229.697498 360.945846 
L 229.12703 359.40012 
L 228.556565 360.328665 
L 227.986103 362.29847 
L 227.415643 362.990689 
L 226.845186 362.85928 
L 226.274732 362.539943 
L 225.70428 362.508491 
L 225.13383 362.886706 
L 223.422498 363.020946 
L 222.281624 362.99391 
L 221.71119 363.072179 
L 220.570331 362.49136 
L 219.999906 362.921842 
L 218.859062 362.733981 
L 217.71823 363.138493 
L 216.007 362.850392 
L 215.436596 362.698248 
L 214.866194 362.806937 
L 214.295795 363.174545 
L 213.725398 362.880521 
L 212.014224 362.656469 
L 210.303074 363.09416 
L 209.732696 362.943311 
L 208.591947 362.87166 
L 208.021577 362.78137 
L 207.451209 362.545839 
L 206.880844 362.491767 
L 205.740122 362.115048 
L 204.029059 362.842359 
L 203.45871 362.149893 
L 202.888363 360.07876 
L 202.318019 359.747751 
L 201.747678 360.73513 
L 201.177339 360.57561 
L 200.607003 361.167243 
L 200.03667 362.602189 
L 199.466339 363.021171 
L 198.896011 362.452977 
L 198.325685 362.314957 
L 197.755363 362.401522 
L 197.185042 361.741047 
L 196.614725 361.710146 
L 196.04441 362.654861 
L 195.474097 362.651445 
L 194.903788 362.079716 
L 194.333481 358.455181 
L 193.763176 333.755544 
L 192.622575 116.933233 
L 192.052279 198.166675 
L 191.481985 326.763083 
L 190.911693 361.669756 
L 190.341405 362.376044 
L 189.771119 362.235594 
L 188.630555 359.33484 
L 188.060277 360.139368 
L 187.490001 362.16112 
L 186.919728 363.127002 
L 184.638663 362.946873 
L 182.927892 362.922801 
L 182.35764 362.683761 
L 181.787391 362.821001 
L 181.217144 363.07264 
L 180.646901 362.779124 
L 179.506421 363.039317 
L 178.936185 362.932229 
L 178.365951 362.649801 
L 177.225492 362.867976 
L 176.655267 362.926535 
L 176.085044 362.812366 
L 174.374391 362.855071 
L 173.233969 363.11985 
L 171.523356 362.883627 
L 170.953157 362.892682 
L 170.38296 363.12217 
L 169.812767 363.005992 
L 169.242575 363.152035 
L 166.961837 362.794214 
L 166.391658 362.984389 
L 165.821483 362.784671 
L 164.68114 362.809205 
L 163.540807 362.362074 
L 162.970645 362.535831 
L 162.400485 362.836748 
L 160.690022 363.075531 
L 159.549727 362.985848 
L 158.979583 363.137906 
L 157.839303 362.565827 
L 156.699033 362.90795 
L 156.128903 362.866134 
L 155.558775 363.050515 
L 154.988649 362.545476 
L 154.418526 362.641497 
L 153.848406 362.46299 
L 153.278289 358.224858 
L 152.708174 327.805226 
L 152.138061 277.226345 
L 151.567952 279.101298 
L 150.997845 329.734375 
L 150.42774 358.110973 
L 149.857638 362.259726 
L 149.287539 362.774444 
L 148.717443 361.916825 
L 148.147349 359.239629 
L 147.577258 358.694625 
L 147.007169 360.92531 
L 146.437083 362.588948 
L 145.867 362.620238 
L 145.296919 362.379888 
L 144.726841 362.501994 
L 144.156765 362.876558 
L 142.446555 363.104125 
L 141.87649 362.95041 
L 141.306427 363.165028 
L 140.736368 362.914392 
L 140.166311 362.96387 
L 139.596256 362.852154 
L 138.456155 362.48836 
L 137.886109 362.62192 
L 137.316065 362.629413 
L 136.746023 362.152702 
L 136.175985 362.09176 
L 135.035915 362.737074 
L 134.465885 362.951361 
L 131.045755 363.000157 
L 129.335726 362.374382 
L 128.765722 362.640071 
L 128.19572 362.781534 
L 127.625721 362.465194 
L 127.055724 362.451198 
L 126.485731 362.756776 
L 125.915739 362.933908 
L 123.6358 362.409054 
L 122.495847 362.508616 
L 121.925874 362.573691 
L 120.785936 362.967136 
L 119.646009 362.755145 
L 117.936137 363.064787 
L 117.366186 362.900826 
L 116.22629 362.946822 
L 115.656346 362.668712 
L 115.086405 362.632338 
L 114.516466 362.924044 
L 113.94653 362.88079 
L 113.376596 362.505426 
L 112.806666 361.972449 
L 111.096889 361.207346 
L 110.526969 361.976962 
L 109.957051 363.127336 
L 109.387136 362.825801 
L 107.107503 363.045756 
L 106.537601 362.76432 
L 105.967701 362.725627 
L 104.827911 362.250999 
L 104.25802 362.276272 
L 103.118245 362.785971 
L 101.978481 362.489873 
L 99.698984 362.594405 
L 98.559251 363.033018 
L 97.989388 362.656475 
L 97.419529 362.781832 
L 96.849672 363.16058 
L 95.709965 362.455165 
L 95.140116 362.412887 
L 94.000425 362.836756 
L 93.430584 362.957628 
L 92.860745 362.960059 
L 92.290909 362.84104 
L 92.290909 362.84104 
" style="fill:none;stroke:#1f77b4;stroke-linecap:square;stroke-width:1.5;"/>
   </g>
   <g id="patch_3">
    <path d="M 72 378 
L 72 51.84 
" style="fill:none;stroke:#000000;stroke-linecap:square;stroke-linejoin:miter;stroke-width:0.8;"/>
   </g>
   <g id="patch_4">
    <path d="M 72 378 
L 518.4 378 
" style="fill:none;stroke:#000000;stroke-linecap:square;stroke-linejoin:miter;stroke-width:0.8;"/>
   </g>
  </g>
 </g>
 <defs>
  <clipPath id="pd7c92ee51e">
   <rect height="326.16" width="446.4" x="72" y="51.84"/>
  </clipPath>
 </defs>
</svg>
